<svg width="16" height="16" viewBox="0 0 16 16" xmlns="http://www.w3.org/2000/svg">
<g clip-path="url(#clip0_708_808)">
<path d="M2.86615 14.8508C2.78835 15.2942 3.22592 15.6413 3.61236 15.4427L8.00159 13.1868L12.3908 15.4427C12.7773 15.6413 13.2148 15.2942 13.137 14.8508L12.3073 10.1213L15.8296 6.76462C16.1588 6.45092 15.9884 5.87737 15.5474 5.81472L10.6489 5.11885L8.46482 0.792305C8.26807 0.402565 7.7351 0.402565 7.53835 0.792305L5.35423 5.11885L0.455759 5.81472C0.0147696 5.87737 -0.155631 6.45092 0.17355 6.76462L3.69588 10.1213L2.86615 14.8508ZM7.77076 12.0826L4.08501 13.977L4.77926 10.0197C4.81199 9.83316 4.75045 9.64214 4.61651 9.5145L1.70967 6.7444L5.76198 6.16873C5.9295 6.14494 6.07577 6.03795 6.15479 5.88141L8.00159 2.22308L9.84838 5.88141C9.92741 6.03795 10.0737 6.14494 10.2412 6.16873L14.2935 6.7444L11.3867 9.5145C11.2527 9.64214 11.1912 9.83316 11.2239 10.0197L11.9182 13.977L8.23242 12.0826C8.08682 12.0078 7.91635 12.0078 7.77076 12.0826Z"/>
</g>
<defs>
<clipPath id="clip0_708_808">
<rect width="16" height="16" fill="white"/>
</clipPath>
</defs>
</svg>
