<svg width="16" height="16" viewBox="0 0 16 16" fill="none" xmlns="http://www.w3.org/2000/svg">
<path fill-rule="evenodd" clip-rule="evenodd" d="M16 8C16 12.4183 12.4183 16 8 16C3.58172 16 0 12.4183 0 8C0 3.58172 3.58172 0 8 0C12.4183 0 16 3.58172 16 8ZM8.71677 5.71098L3.32948 7.93063C2.3815 8.30057 2.93642 8.64739 2.93642 8.64739C2.93642 8.64739 3.74567 8.92485 4.43931 9.13294C5.13295 9.34103 5.50289 9.10982 5.50289 9.10982L8.76301 6.91329C9.91908 6.12716 9.64162 6.77456 9.36416 7.05202C8.76301 7.65317 7.76879 8.60115 6.93642 9.36416C6.56648 9.68786 6.75145 9.96531 6.9133 10.104C7.3838 10.5022 8.49167 11.226 8.99533 11.5551C9.13519 11.6465 9.22846 11.7075 9.24856 11.7225C9.36416 11.815 10.0116 12.2312 10.4046 12.1387C10.7977 12.0462 10.8439 11.5144 10.8439 11.5144L11.422 7.88439C11.4733 7.54407 11.5247 7.21088 11.5726 6.90018C11.6972 6.0921 11.7983 5.43611 11.815 5.20231C11.8844 4.41618 11.052 4.73988 11.052 4.73988C11.052 4.73988 9.24856 5.47976 8.71677 5.71098Z" fill="#050121"/>
</svg>
