<svg width="16" height="16" viewBox="0 0 16 16" fill="none" xmlns="http://www.w3.org/2000/svg">
<path d="M15.4337 9.31317C15.4286 9.34129 15.4251 9.36967 15.4197 9.3978L15.3924 9.23665C15.4073 9.26173 15.4197 9.28783 15.4337 9.31317C15.5163 8.86366 15.5596 8.40352 15.5596 7.94362C15.5596 6.92375 15.3599 5.93428 14.9654 5.00283C14.5848 4.10306 14.0403 3.29502 13.346 2.60125C12.6528 1.90748 11.8442 1.36296 10.945 0.982374C10.0138 0.58836 9.02431 0.388693 8.00443 0.388693C7.52376 0.388693 7.04233 0.433795 6.57382 0.523747C6.57281 0.524 6.57154 0.524 6.57027 0.524254C6.59663 0.53819 6.62323 0.550606 6.64908 0.565049L6.49021 0.540217C6.51681 0.535149 6.54367 0.529575 6.57027 0.524254C5.92744 0.182437 5.20453 0 4.47275 0C3.27804 0 2.15479 0.465215 1.31 1.31025C0.465468 2.15504 0 3.2783 0 4.47301C0 5.23342 0.195613 5.9809 0.562768 6.64148C0.567583 6.61411 0.570877 6.58649 0.576198 6.55913L0.603563 6.71749C0.589374 6.69266 0.576958 6.66681 0.562768 6.64148C0.488273 7.06944 0.448998 7.50679 0.448998 7.94362C0.448998 8.96375 0.648666 9.95297 1.04319 10.8847C1.42326 11.7847 1.96804 12.5922 2.66156 13.286C3.35583 13.9798 4.16337 14.525 5.06365 14.9046C5.99484 15.2994 6.98456 15.4993 8.00443 15.4993C8.44837 15.4993 8.89331 15.4588 9.32761 15.3817C9.30227 15.3676 9.27643 15.3546 9.25058 15.3397L9.41199 15.3681C9.38412 15.3734 9.35599 15.3767 9.32761 15.3817C9.9968 15.7603 10.7544 15.9615 11.528 15.9615C12.7225 15.9615 13.8452 15.497 14.69 14.6517C15.535 13.8075 16 12.6839 16 11.4892C16 10.7263 15.8034 9.97628 15.4337 9.31317ZM8.03459 12.5707C5.35048 12.5707 4.14969 11.2511 4.14969 10.2621C4.14969 9.75482 4.52419 9.39932 5.04034 9.39932C6.18893 9.39932 5.89146 11.0486 8.03459 11.0486C9.13174 11.0486 9.73759 10.4529 9.73759 9.84325C9.73759 9.4766 9.55667 9.07017 8.83427 8.89204L6.44688 8.29608C4.52419 7.81389 4.17528 6.7745 4.17528 5.79745C4.17528 3.76885 6.0853 3.00717 7.87901 3.00717C9.53133 3.00717 11.4791 3.92037 11.4791 5.13738C11.4791 5.65885 11.0276 5.96215 10.5117 5.96215C9.53133 5.96215 9.71174 4.60527 7.73711 4.60527C6.75727 4.60527 6.21452 5.04895 6.21452 5.68393C6.21452 6.31765 6.98836 6.5201 7.66034 6.67315L9.42744 7.06539C11.3631 7.49665 11.8539 8.62675 11.8539 9.69122C11.8539 11.3397 10.5885 12.5707 8.03459 12.5707ZM9.25058 15.3397C9.27643 15.3546 9.30227 15.3676 9.32761 15.3817C9.35599 15.3767 9.38412 15.3734 9.41199 15.3681L9.25058 15.3397ZM15.4197 9.3978C15.4251 9.36967 15.4286 9.34129 15.4337 9.31317C15.4197 9.28783 15.4073 9.26173 15.3924 9.23665L15.4197 9.3978ZM0.576198 6.55913C0.570877 6.58649 0.567583 6.61411 0.562768 6.64148C0.576958 6.66681 0.589374 6.69266 0.603563 6.71749L0.576198 6.55913ZM6.64908 0.565049C6.62323 0.550606 6.59663 0.53819 6.57027 0.524254C6.54367 0.529575 6.51681 0.535149 6.49021 0.540217L6.64908 0.565049Z" fill="#050121"/>
</svg>
