<svg width="16" height="16" viewBox="0 0 16 16" xmlns="http://www.w3.org/2000/svg">
<path d="M12.1362 0.325799C13.0829 0.0891186 14 0.805156 14 1.78101V3.00024H14.5C15.3284 3.00024 16 3.67181 16 4.50024V13.5002C16 14.3287 15.3284 15.0002 14.5 15.0002H1.5C0.671573 15.0002 0 14.3287 0 13.5002V4.50024C0 3.69444 0.635386 3.03704 1.43248 3.00173L12.1362 0.325799ZM5.56155 3.00024H13V1.78101C13 1.45573 12.6943 1.21705 12.3787 1.29594L5.56155 3.00024ZM1.5 4.00024C1.22386 4.00024 1 4.22409 1 4.50024V13.5002C1 13.7764 1.22386 14.0002 1.5 14.0002H14.5C14.7761 14.0002 15 13.7764 15 13.5002V4.50024C15 4.22409 14.7761 4.00024 14.5 4.00024H1.5Z"/>
</svg>
