<svg width="16" height="16" viewBox="0 0 16 16" xmlns="http://www.w3.org/2000/svg">
<path d="M13 2.45231C13 1.62433 13.6716 0.953125 14.5 0.953125C15.3284 0.953125 16 1.62433 16 2.45231V13.4464C16 14.2743 15.3284 14.9455 14.5 14.9455C13.6716 14.9455 13 14.2743 13 13.4464V13.2327C10.8381 11.9921 8.51034 11.3899 6.088 11.1502L6.49282 13.8609C6.60959 14.475 6.13842 15.0465 5.5103 15.0465H4.96173C4.56378 15.0465 4.20477 14.8108 4.04585 14.4482L2.19627 10.9593C2.12888 10.9583 2.06149 10.9574 1.9941 10.9566C0.895613 10.9437 0 10.0542 0 8.94879V6.94988C0 5.84471 0.8949 4.95468 1.99207 4.93766C2.7454 4.92597 3.66574 4.90407 4.47475 4.86319C7.51826 4.70938 10.623 4.0148 13 2.66518V2.45231ZM14 2.45231V13.4464C14 13.7223 14.2239 13.9461 14.5 13.9461C14.7761 13.9461 15 13.7223 15 13.4464V2.45231C15 2.17632 14.7761 1.95258 14.5 1.95258C14.2239 1.95258 14 2.17632 14 2.45231ZM13 3.8011C10.6557 5.00641 7.79147 5.64244 5 5.83317V10.0636C5.17999 10.0746 5.35894 10.0865 5.53676 10.0996C8.10519 10.2889 10.6302 10.8441 13 12.0921V3.8011ZM4 10.0127V5.88489C3.31951 5.91185 2.60833 5.92768 2.00759 5.937C1.44811 5.94567 1 6.39908 1 6.94988V8.94879C1 9.49935 1.44754 9.95066 2.0058 9.95719C2.17394 9.95916 2.34203 9.96184 2.51006 9.96523C3.00713 9.97523 3.50376 9.99129 4 10.0127ZM3.34295 10.9876L4.95194 14.0227L4.96173 14.047L5.5103 14.047L5.50751 14.0335L5.06481 11.0691C4.86968 11.0566 4.67295 11.0455 4.47475 11.0355C4.09741 11.0164 3.72016 11.0003 3.34295 10.9876Z"/>
</svg>
