<svg width="150" height="150" viewBox="0 0 299 150" fill="none" xmlns="http://www.w3.org/2000/svg">
<path d="M9.50928 159.804V123.062H43.0085V127.195H13.6393V139.341H37.2468V143.525H13.6393V159.804H9.50928ZM52.1685 159.804C50.4691 159.804 49.0072 159.209 47.7835 158.018C46.594 156.793 45.9989 155.33 45.9989 153.629V136.381C45.9989 134.68 46.594 133.234 47.7835 132.043C49.0072 130.818 50.4691 130.206 52.1685 130.206H69.9124C71.646 130.206 73.1078 130.818 74.2974 132.043C75.5211 133.234 76.1329 134.68 76.1329 136.381V153.629C76.1329 155.33 75.5211 156.793 74.2974 158.018C73.1078 159.209 71.646 159.804 69.9124 159.804H52.1685ZM52.1685 155.62H69.9124C70.4564 155.62 70.9153 155.432 71.289 155.058C71.6969 154.65 71.9009 154.174 71.9009 153.629V136.381C71.9009 135.837 71.6969 135.377 71.289 135.003C70.9153 134.595 70.4564 134.391 69.9124 134.391H52.1685C51.6244 134.391 51.1487 134.595 50.7408 135.003C50.3671 135.377 50.18 135.837 50.18 136.381V153.629C50.18 154.174 50.3671 154.65 50.7408 155.058C51.1487 155.432 51.6244 155.62 52.1685 155.62ZM79.2549 159.804V159.753L91.5941 144.75L79.2549 130.257V130.206H84.7616L94.3474 141.433L103.984 130.206H109.44V130.257L97.1008 144.75L109.491 159.753V159.804H103.984L94.3474 147.965L84.7616 159.804H79.2549ZM121.085 159.804C119.385 159.804 117.94 159.209 116.751 158.018C115.561 156.827 114.966 155.381 114.966 153.68V129.186C114.966 127.484 115.561 126.039 116.751 124.848C117.94 123.657 119.385 123.062 121.085 123.062H145.559C147.258 123.062 148.703 123.657 149.893 124.848C151.082 126.039 151.677 127.484 151.677 129.186V153.68C151.677 155.381 151.082 156.827 149.893 158.018C148.703 159.209 147.258 159.804 145.559 159.804H121.085ZM121.085 155.671H145.559C146.103 155.671 146.562 155.483 146.936 155.109C147.343 154.701 147.547 154.225 147.547 153.68V129.186C147.547 128.641 147.343 128.182 146.936 127.808C146.562 127.399 146.103 127.195 145.559 127.195H121.085C120.541 127.195 120.065 127.399 119.657 127.808C119.283 128.182 119.096 128.641 119.096 129.186V153.68C119.096 154.225 119.283 154.701 119.657 155.109C120.065 155.483 120.541 155.671 121.085 155.671ZM157.14 159.804V126.685C157.14 124.95 157.734 123.487 158.924 122.296C160.114 121.106 161.576 120.51 163.309 120.51H174.119V124.695H163.309C162.765 124.695 162.29 124.899 161.882 125.307C161.507 125.681 161.321 126.141 161.321 126.685V130.206H174.119V134.391H161.321V159.804H157.14ZM177.903 159.804V126.685C177.903 124.95 178.498 123.487 179.688 122.296C180.878 121.106 182.339 120.51 184.073 120.51H194.882V124.695H184.073C183.529 124.695 183.053 124.899 182.645 125.307C182.271 125.681 182.084 126.141 182.084 126.685V130.206H194.882V134.391H182.084V159.804H177.903ZM204.735 159.804C203.035 159.804 201.573 159.209 200.35 158.018C199.16 156.793 198.565 155.33 198.565 153.629V136.381C198.565 134.68 199.16 133.234 200.35 132.043C201.573 130.818 203.035 130.206 204.735 130.206H222.479C224.212 130.206 225.674 130.818 226.864 132.043C228.087 133.234 228.699 134.68 228.699 136.381V147.097H202.746V153.629C202.746 154.174 202.933 154.65 203.307 155.058C203.715 155.432 204.191 155.62 204.735 155.62H228.699V159.804H204.735ZM202.746 142.913H224.467V136.381C224.467 135.837 224.263 135.377 223.855 135.003C223.481 134.595 223.023 134.391 222.479 134.391H204.735C204.191 134.391 203.715 134.595 203.307 135.003C202.933 135.377 202.746 135.837 202.746 136.381V142.913ZM233.67 159.804V136.381C233.67 134.68 234.265 133.234 235.455 132.043C236.679 130.818 238.141 130.206 239.84 130.206H256.462V134.391H239.84C239.296 134.391 238.82 134.595 238.412 135.003C238.039 135.377 237.851 135.837 237.851 136.381V159.804H233.67ZM265.728 159.804C264.028 159.804 262.566 159.209 261.343 158.018C260.153 156.793 259.558 155.33 259.558 153.629V153.221H263.739V153.629C263.739 154.174 263.926 154.65 264.3 155.058C264.708 155.432 265.184 155.62 265.728 155.62H283.472C284.015 155.62 284.474 155.432 284.848 155.058C285.256 154.65 285.46 154.174 285.46 153.629V149.088C285.46 148.543 285.256 148.084 284.848 147.71C284.474 147.301 284.015 147.097 283.472 147.097H265.728C264.028 147.097 262.566 146.502 261.343 145.311C260.153 144.087 259.558 142.623 259.558 140.923V136.381C259.558 134.68 260.153 133.234 261.343 132.043C262.566 130.818 264.028 130.206 265.728 130.206H283.472C285.205 130.206 286.667 130.818 287.857 132.043C289.08 133.234 289.692 134.68 289.692 136.381V136.789H285.46V136.381C285.46 135.837 285.256 135.377 284.848 135.003C284.474 134.595 284.015 134.391 283.472 134.391H265.728C265.184 134.391 264.708 134.595 264.3 135.003C263.926 135.377 263.739 135.837 263.739 136.381V140.923C263.739 141.467 263.926 141.943 264.3 142.351C264.708 142.726 265.184 142.913 265.728 142.913H283.472C285.205 142.913 286.667 143.525 287.857 144.75C289.08 145.94 289.692 147.387 289.692 149.088V153.629C289.692 155.33 289.08 156.793 287.857 158.018C286.667 159.209 285.205 159.804 283.472 159.804H265.728Z" fill="#050121"/>
<path d="M9.50988 159.804H9V160.314H9.50988V159.804ZM9.50988 123.062V122.552H9V123.062H9.50988ZM43.0091 123.062H43.519V122.552H43.0091V123.062ZM43.0091 127.195V127.706H43.519V127.195H43.0091ZM13.6399 127.195V126.685H13.13V127.195H13.6399ZM13.6399 139.341H13.13V139.851H13.6399V139.341ZM37.2474 139.341H37.7573V138.83H37.2474V139.341ZM37.2474 143.525V144.036H37.7573V143.525H37.2474ZM13.6399 143.525V143.015H13.13V143.525H13.6399ZM13.6399 159.804V160.314H14.1498V159.804H13.6399ZM10.0198 159.804V123.062H9V159.804H10.0198ZM9.50988 123.572H43.0091V122.552H9.50988V123.572ZM42.4992 123.062V127.195H43.519V123.062H42.4992ZM43.0091 126.685H13.6399V127.706H43.0091V126.685ZM13.13 127.195V139.341H14.1498V127.195H13.13ZM13.6399 139.851H37.2474V138.83H13.6399V139.851ZM36.7375 139.341V143.525H37.7573V139.341H36.7375ZM37.2474 143.015H13.6399V144.036H37.2474V143.015ZM13.13 143.525V159.804H14.1498V143.525H13.13ZM13.6399 159.294H9.50988V160.314H13.6399V159.294ZM47.7841 158.018L47.4185 158.374L47.4236 158.379L47.4287 158.384L47.7841 158.018ZM47.7841 132.043L47.4236 131.682L47.7841 132.043ZM74.298 132.043L73.9324 132.399L73.9375 132.404L73.9426 132.409L74.298 132.043ZM74.298 158.018L73.9375 157.657L74.298 158.018ZM71.2896 155.058L71.6501 155.419L71.2896 155.058ZM71.2896 135.003L70.9139 135.348L70.9287 135.364L70.945 135.379L71.2896 135.003ZM50.7414 135.003L51.1019 135.364L50.7414 135.003ZM50.7414 155.058L50.3657 155.403L50.3804 155.42L50.3968 155.434L50.7414 155.058ZM52.1691 159.294C50.6027 159.294 49.2684 158.751 48.1395 157.652L47.4287 158.384C48.7473 159.667 50.3361 160.314 52.1691 160.314V159.294ZM48.1497 157.662C47.0519 156.533 46.5094 155.197 46.5094 153.629H45.4897C45.4897 155.464 46.1367 157.054 47.4185 158.374L48.1497 157.662ZM46.5094 153.629V136.381H45.4897V153.629H46.5094ZM46.5094 136.381C46.5094 134.814 47.0519 133.498 48.1446 132.404L47.4236 131.682C46.1372 132.97 45.4897 134.546 45.4897 136.381H46.5094ZM48.1446 132.404C49.275 131.273 50.6073 130.716 52.1691 130.716V129.696C50.3315 129.696 48.7412 130.364 47.4236 131.682L48.1446 132.404ZM52.1691 130.716H69.913V129.696H52.1691V130.716ZM69.913 130.716C71.5115 130.716 72.8402 131.275 73.9324 132.399L74.6635 131.688C73.3761 130.362 71.7817 129.696 69.913 129.696V130.716ZM73.9426 132.409C75.0679 133.504 75.6236 134.818 75.6236 136.381H76.6434C76.6434 134.541 75.9755 132.964 74.6533 131.677L73.9426 132.409ZM75.6236 136.381V153.629H76.6434V136.381H75.6236ZM75.6236 153.629C75.6236 155.192 75.0674 156.526 73.9375 157.657L74.6584 158.379C75.976 157.06 76.6434 155.469 76.6434 153.629H75.6236ZM73.9375 157.657C72.8468 158.749 71.516 159.294 69.913 159.294V160.314C71.7771 160.314 73.37 159.668 74.6584 158.379L73.9375 157.657ZM69.913 159.294H52.1691V160.314H69.913V159.294ZM52.1691 156.13H69.913V155.109H52.1691V156.13ZM69.913 156.13C70.5881 156.13 71.1775 155.892 71.6501 155.419L70.9292 154.697C70.6538 154.973 70.326 155.109 69.913 155.109V156.13ZM71.6501 155.419C72.1473 154.921 72.4114 154.318 72.4114 153.629H71.3916C71.3916 154.029 71.2479 154.379 70.9292 154.697L71.6501 155.419ZM72.4114 153.629V136.381H71.3916V153.629H72.4114ZM72.4114 136.381C72.4114 135.691 72.1452 135.096 71.6343 134.627L70.945 135.379C71.2499 135.659 71.3916 135.982 71.3916 136.381H72.4114ZM71.6654 134.658C71.1968 134.147 70.6028 133.88 69.913 133.88V134.901C70.3112 134.901 70.6344 135.043 70.9139 135.348L71.6654 134.658ZM69.913 133.88H52.1691V134.901H69.913V133.88ZM52.1691 133.88C51.4813 133.88 50.8781 134.145 50.3809 134.642L51.1019 135.364C51.4206 135.045 51.7693 134.901 52.1691 134.901V133.88ZM50.3809 134.642C49.9083 135.115 49.6707 135.706 49.6707 136.381H50.6904C50.6904 135.968 50.8266 135.639 51.1019 135.364L50.3809 134.642ZM49.6707 136.381V153.629H50.6904V136.381H49.6707ZM49.6707 153.629C49.6707 154.304 49.9073 154.903 50.3657 155.403L51.1172 154.713C50.8281 154.397 50.6904 154.044 50.6904 153.629H49.6707ZM50.3968 155.434C50.897 155.893 51.4955 156.13 52.1691 156.13V155.109C51.7551 155.109 51.4017 154.971 51.0861 154.682L50.3968 155.434ZM79.2555 159.804H78.7457V160.314H79.2555V159.804ZM79.2555 159.753L78.8619 159.429L78.7457 159.57V159.753H79.2555ZM91.5947 144.75L91.9883 145.075L92.2595 144.744L91.9827 144.419L91.5947 144.75ZM79.2555 130.257H78.7457V130.445L78.8675 130.588L79.2555 130.257ZM79.2555 130.206V129.696H78.7457V130.206H79.2555ZM84.7622 130.206L85.1498 129.875L84.9973 129.696H84.7622V130.206ZM94.348 141.433L93.9605 141.765L94.347 142.217L94.7345 141.766L94.348 141.433ZM103.985 130.206V129.696H103.751L103.598 129.874L103.985 130.206ZM109.441 130.206H109.95V129.696H109.441V130.206ZM109.441 130.257L109.829 130.588L109.95 130.445V130.257H109.441ZM97.1014 144.75L96.7134 144.419L96.4355 144.745L96.7083 145.075L97.1014 144.75ZM109.491 159.753H110.001V159.569L109.885 159.428L109.491 159.753ZM109.491 159.804V160.314H110.001V159.804H109.491ZM103.985 159.804L103.59 160.127L103.743 160.314H103.985V159.804ZM94.348 147.965L94.7432 147.642L94.347 147.156L93.9518 147.643L94.348 147.965ZM84.7622 159.804V160.314H85.0055L85.1584 160.126L84.7622 159.804ZM79.7654 159.804V159.753H78.7457V159.804H79.7654ZM79.6492 160.078L91.9883 145.075L91.201 144.425L78.8619 159.429L79.6492 160.078ZM91.9827 144.419L79.6435 129.926L78.8675 130.588L91.2066 145.081L91.9827 144.419ZM79.7654 130.257V130.206H78.7457V130.257H79.7654ZM79.2555 130.716H84.7622V129.696H79.2555V130.716ZM84.3747 130.538L93.9605 141.765L94.7355 141.101L85.1498 129.875L84.3747 130.538ZM94.7345 141.766L104.371 130.539L103.598 129.874L93.961 141.1L94.7345 141.766ZM103.985 130.716H109.441V129.696H103.985V130.716ZM108.931 130.206V130.257H109.95V130.206H108.931ZM109.052 129.926L96.7134 144.419L97.4894 145.081L109.829 130.588L109.052 129.926ZM96.7083 145.075L109.098 160.078L109.885 159.428L97.4945 144.425L96.7083 145.075ZM108.982 159.753V159.804H110.001V159.753H108.982ZM109.491 159.294H103.985V160.314H109.491V159.294ZM104.38 159.482L94.7432 147.642L93.9529 148.287L103.59 160.127L104.38 159.482ZM93.9518 147.643L84.3661 159.483L85.1584 160.126L94.7442 148.286L93.9518 147.643ZM84.7622 159.294H79.2555V160.314H84.7622V159.294ZM116.751 158.018L116.391 158.379L116.751 158.018ZM116.751 124.848L116.391 124.487L116.751 124.848ZM149.893 158.018L149.533 157.657L149.893 158.018ZM146.936 155.109L147.297 155.47L146.936 155.109ZM146.936 127.808L146.56 128.153L146.575 128.169L146.591 128.184L146.936 127.808ZM119.658 127.808L120.018 128.169L119.658 127.808ZM119.658 155.109L119.282 155.454L119.297 155.471L119.313 155.485L119.658 155.109ZM121.085 159.294C119.519 159.294 118.205 158.751 117.112 157.657L116.391 158.379C117.677 159.666 119.252 160.314 121.085 160.314V159.294ZM117.112 157.657C116.019 156.563 115.476 155.248 115.476 153.68H114.457C114.457 155.515 115.104 157.091 116.391 158.379L117.112 157.657ZM115.476 153.68V129.186H114.457V153.68H115.476ZM115.476 129.186C115.476 127.618 116.019 126.303 117.112 125.209L116.391 124.487C115.104 125.775 114.457 127.351 114.457 129.186H115.476ZM117.112 125.209C118.205 124.115 119.519 123.572 121.085 123.572V122.552C119.252 122.552 117.677 123.2 116.391 124.487L117.112 125.209ZM121.085 123.572H145.559V122.552H121.085V123.572ZM145.559 123.572C147.125 123.572 148.44 124.115 149.533 125.209L150.254 124.487C148.968 123.2 147.393 122.552 145.559 122.552V123.572ZM149.533 125.209C150.626 126.303 151.168 127.618 151.168 129.186H152.188C152.188 127.351 151.54 125.775 150.254 124.487L149.533 125.209ZM151.168 129.186V153.68H152.188V129.186H151.168ZM151.168 153.68C151.168 155.248 150.626 156.563 149.533 157.657L150.254 158.379C151.54 157.091 152.188 155.515 152.188 153.68H151.168ZM149.533 157.657C148.44 158.751 147.125 159.294 145.559 159.294V160.314C147.393 160.314 148.968 159.666 150.254 158.379L149.533 157.657ZM145.559 159.294H121.085V160.314H145.559V159.294ZM121.085 156.181H145.559V155.16H121.085V156.181ZM145.559 156.181C146.235 156.181 146.824 155.943 147.297 155.47L146.576 154.748C146.3 155.024 145.972 155.16 145.559 155.16V156.181ZM147.297 155.47C147.794 154.973 148.058 154.369 148.058 153.68H147.038C147.038 154.08 146.894 154.43 146.576 154.748L147.297 155.47ZM148.058 153.68V129.186H147.038V153.68H148.058ZM148.058 129.186C148.058 128.495 147.792 127.901 147.281 127.432L146.591 128.184C146.896 128.463 147.038 128.787 147.038 129.186H148.058ZM147.312 127.463C146.843 126.951 146.249 126.685 145.559 126.685V127.706C145.958 127.706 146.281 127.848 146.56 128.153L147.312 127.463ZM145.559 126.685H121.085V127.706H145.559V126.685ZM121.085 126.685C120.397 126.685 119.794 126.949 119.297 127.447L120.018 128.169C120.337 127.85 120.685 127.706 121.085 127.706V126.685ZM119.297 127.447C118.824 127.92 118.587 128.51 118.587 129.186H119.607C119.607 128.772 119.743 128.444 120.018 128.169L119.297 127.447ZM118.587 129.186V153.68H119.607V129.186H118.587ZM118.587 153.68C118.587 154.355 118.823 154.954 119.282 155.454L120.033 154.764C119.744 154.448 119.607 154.095 119.607 153.68H118.587ZM119.313 155.485C119.813 155.944 120.411 156.181 121.085 156.181V155.16C120.671 155.16 120.318 155.023 120.002 154.733L119.313 155.485ZM157.14 159.804H156.631V160.314H157.14V159.804ZM158.925 122.296L159.285 122.657L158.925 122.296ZM174.119 120.51H174.629V120H174.119V120.51ZM174.119 124.695V125.205H174.629V124.695H174.119ZM161.882 125.307L161.521 124.946L161.882 125.307ZM161.321 130.206H160.812V130.716H161.321V130.206ZM174.119 130.206H174.629V129.696H174.119V130.206ZM174.119 134.391V134.901H174.629V134.391H174.119ZM161.321 134.391V133.88H160.812V134.391H161.321ZM161.321 159.804V160.314H161.831V159.804H161.321ZM157.65 159.804V126.685H156.631V159.804H157.65ZM157.65 126.685C157.65 125.081 158.194 123.749 159.285 122.657L158.564 121.936C157.276 123.225 156.631 124.819 156.631 126.685H157.65ZM159.285 122.657C160.376 121.565 161.707 121.021 163.31 121.021V120C161.445 120 159.853 120.646 158.564 121.936L159.285 122.657ZM163.31 121.021H174.119V120H163.31V121.021ZM173.61 120.51V124.695H174.629V120.51H173.61ZM174.119 124.185H163.31V125.205H174.119V124.185ZM163.31 124.185C162.622 124.185 162.018 124.449 161.521 124.946L162.243 125.668C162.561 125.349 162.91 125.205 163.31 125.205V124.185ZM161.521 124.946C161.049 125.419 160.812 126.01 160.812 126.685H161.831C161.831 126.272 161.967 125.944 162.243 125.668L161.521 124.946ZM160.812 126.685V130.206H161.831V126.685H160.812ZM161.321 130.716H174.119V129.696H161.321V130.716ZM173.61 130.206V134.391H174.629V130.206H173.61ZM174.119 133.88H161.321V134.901H174.119V133.88ZM160.812 134.391V159.804H161.831V134.391H160.812ZM161.321 159.294H157.14V160.314H161.321V159.294ZM177.904 159.804H177.394V160.314H177.904V159.804ZM179.688 122.296L180.049 122.657L179.688 122.296ZM194.883 120.51H195.393V120H194.883V120.51ZM194.883 124.695V125.205H195.393V124.695H194.883ZM182.646 125.307L182.285 124.946L182.646 125.307ZM182.085 130.206H181.575V130.716H182.085V130.206ZM194.883 130.206H195.393V129.696H194.883V130.206ZM194.883 134.391V134.901H195.393V134.391H194.883ZM182.085 134.391V133.88H181.575V134.391H182.085ZM182.085 159.804V160.314H182.595V159.804H182.085ZM178.414 159.804V126.685H177.394V159.804H178.414ZM178.414 126.685C178.414 125.081 178.958 123.749 180.049 122.657L179.328 121.936C178.039 123.225 177.394 124.819 177.394 126.685H178.414ZM180.049 122.657C181.14 121.565 182.47 121.021 184.073 121.021V120C182.209 120 180.616 120.646 179.328 121.936L180.049 122.657ZM184.073 121.021H194.883V120H184.073V121.021ZM194.373 120.51V124.695H195.393V120.51H194.373ZM194.883 124.185H184.073V125.205H194.883V124.185ZM184.073 124.185C183.386 124.185 182.782 124.449 182.285 124.946L183.006 125.668C183.325 125.349 183.674 125.205 184.073 125.205V124.185ZM182.285 124.946C181.813 125.419 181.575 126.01 181.575 126.685H182.595C182.595 126.272 182.731 125.944 183.006 125.668L182.285 124.946ZM181.575 126.685V130.206H182.595V126.685H181.575ZM182.085 130.716H194.883V129.696H182.085V130.716ZM194.373 130.206V134.391H195.393V130.206H194.373ZM194.883 133.88H182.085V134.901H194.883V133.88ZM181.575 134.391V159.804H182.595V134.391H181.575ZM182.085 159.294H177.904V160.314H182.085V159.294ZM200.35 158.018L199.985 158.374L199.99 158.379L199.995 158.384L200.35 158.018ZM200.35 132.043L199.99 131.682L200.35 132.043ZM226.864 132.043L226.499 132.399L226.504 132.404L226.509 132.409L226.864 132.043ZM228.7 147.097V147.608H229.21V147.097H228.7ZM202.747 147.097V146.587H202.237V147.097H202.747ZM203.308 155.058L202.932 155.403L202.947 155.42L202.963 155.434L203.308 155.058ZM228.7 155.62H229.21V155.109H228.7V155.62ZM228.7 159.804V160.314H229.21V159.804H228.7ZM202.747 142.913H202.237V143.423H202.747V142.913ZM224.468 142.913V143.423H224.978V142.913H224.468ZM223.856 135.003L223.48 135.348L223.495 135.364L223.511 135.379L223.856 135.003ZM203.308 135.003L203.668 135.364L203.308 135.003ZM204.735 159.294C203.169 159.294 201.835 158.751 200.706 157.652L199.995 158.384C201.313 159.667 202.902 160.314 204.735 160.314V159.294ZM200.716 157.662C199.618 156.533 199.076 155.197 199.076 153.629H198.056C198.056 155.464 198.703 157.054 199.985 158.374L200.716 157.662ZM199.076 153.629V136.381H198.056V153.629H199.076ZM199.076 136.381C199.076 134.814 199.618 133.498 200.711 132.404L199.99 131.682C198.703 132.97 198.056 134.546 198.056 136.381H199.076ZM200.711 132.404C201.841 131.273 203.174 130.716 204.735 130.716V129.696C202.898 129.696 201.307 130.364 199.99 131.682L200.711 132.404ZM204.735 130.716H222.479V129.696H204.735V130.716ZM222.479 130.716C224.078 130.716 225.406 131.275 226.499 132.399L227.23 131.688C225.942 130.362 224.348 129.696 222.479 129.696V130.716ZM226.509 132.409C227.634 133.504 228.19 134.818 228.19 136.381H229.21C229.21 134.541 228.542 132.964 227.22 131.677L226.509 132.409ZM228.19 136.381V147.097H229.21V136.381H228.19ZM228.7 146.587H202.747V147.608H228.7V146.587ZM202.237 147.097V153.629H203.257V147.097H202.237ZM202.237 153.629C202.237 154.304 202.473 154.903 202.932 155.403L203.683 154.713C203.394 154.397 203.257 154.044 203.257 153.629H202.237ZM202.963 155.434C203.463 155.893 204.061 156.13 204.735 156.13V155.109C204.321 155.109 203.968 154.971 203.652 154.682L202.963 155.434ZM204.735 156.13H228.7V155.109H204.735V156.13ZM228.19 155.62V159.804H229.21V155.62H228.19ZM228.7 159.294H204.735V160.314H228.7V159.294ZM202.747 143.423H224.468V142.403H202.747V143.423ZM224.978 142.913V136.381H223.958V142.913H224.978ZM224.978 136.381C224.978 135.691 224.711 135.096 224.201 134.627L223.511 135.379C223.816 135.659 223.958 135.982 223.958 136.381H224.978ZM224.232 134.658C223.763 134.147 223.169 133.88 222.479 133.88V134.901C222.877 134.901 223.201 135.043 223.48 135.348L224.232 134.658ZM222.479 133.88H204.735V134.901H222.479V133.88ZM204.735 133.88C204.047 133.88 203.444 134.145 202.947 134.642L203.668 135.364C203.987 135.045 204.336 134.901 204.735 134.901V133.88ZM202.947 134.642C202.474 135.115 202.237 135.706 202.237 136.381H203.257C203.257 135.968 203.393 135.639 203.668 135.364L202.947 134.642ZM202.237 136.381V142.913H203.257V136.381H202.237ZM233.671 159.804H233.161V160.314H233.671V159.804ZM235.456 132.043L235.095 131.682L235.456 132.043ZM256.463 130.206H256.973V129.696H256.463V130.206ZM256.463 134.391V134.901H256.973V134.391H256.463ZM238.413 135.003L238.773 135.364L238.413 135.003ZM237.852 159.804V160.314H238.362V159.804H237.852ZM234.181 159.804V136.381H233.161V159.804H234.181ZM234.181 136.381C234.181 134.814 234.723 133.498 235.816 132.404L235.095 131.682C233.809 132.97 233.161 134.546 233.161 136.381H234.181ZM235.816 132.404C236.946 131.273 238.279 130.716 239.841 130.716V129.696C238.003 129.696 236.412 130.364 235.095 131.682L235.816 132.404ZM239.841 130.716H256.463V129.696H239.841V130.716ZM255.953 130.206V134.391H256.973V130.206H255.953ZM256.463 133.88H239.841V134.901H256.463V133.88ZM239.841 133.88C239.153 133.88 238.55 134.145 238.052 134.642L238.773 135.364C239.092 135.045 239.441 134.901 239.841 134.901V133.88ZM238.052 134.642C237.58 135.115 237.342 135.706 237.342 136.381H238.362C238.362 135.968 238.498 135.639 238.773 135.364L238.052 134.642ZM237.342 136.381V159.804H238.362V136.381H237.342ZM237.852 159.294H233.671V160.314H237.852V159.294ZM261.343 158.018L260.978 158.374L260.983 158.379L260.988 158.384L261.343 158.018ZM259.559 153.221V152.711H259.049V153.221H259.559ZM263.74 153.221H264.25V152.711H263.74V153.221ZM264.301 155.058L263.925 155.403L263.94 155.42L263.956 155.434L264.301 155.058ZM284.849 155.058L284.488 154.697L284.849 155.058ZM284.849 147.71L284.473 148.055L284.488 148.071L284.504 148.086L284.849 147.71ZM261.343 145.311L260.978 145.667L260.983 145.672L260.988 145.677L261.343 145.311ZM261.343 132.043L260.983 131.682L261.343 132.043ZM287.857 132.043L287.492 132.399L287.497 132.404L287.502 132.409L287.857 132.043ZM289.693 136.789V137.299H290.203V136.789H289.693ZM285.461 136.789H284.951V137.299H285.461V136.789ZM284.849 135.003L284.473 135.348L284.488 135.364L284.504 135.379L284.849 135.003ZM264.301 135.003L263.94 134.642L264.301 135.003ZM264.301 142.352L263.925 142.697L263.94 142.713L263.956 142.728L264.301 142.352ZM287.857 144.75L287.492 145.106L287.497 145.111L287.502 145.116L287.857 144.75ZM287.857 158.018L288.218 158.379L287.857 158.018ZM265.728 159.294C264.162 159.294 262.828 158.751 261.699 157.652L260.988 158.384C262.306 159.667 263.895 160.314 265.728 160.314V159.294ZM261.709 157.662C260.611 156.533 260.069 155.197 260.069 153.629H259.049C259.049 155.464 259.696 157.054 260.978 158.374L261.709 157.662ZM260.069 153.629V153.221H259.049V153.629H260.069ZM259.559 153.731H263.74V152.711H259.559V153.731ZM263.23 153.221V153.629H264.25V153.221H263.23ZM263.23 153.629C263.23 154.304 263.466 154.903 263.925 155.403L264.676 154.713C264.387 154.397 264.25 154.044 264.25 153.629H263.23ZM263.956 155.434C264.456 155.893 265.054 156.13 265.728 156.13V155.109C265.314 155.109 264.961 154.971 264.645 154.682L263.956 155.434ZM265.728 156.13H283.472V155.109H265.728V156.13ZM283.472 156.13C284.147 156.13 284.737 155.892 285.209 155.419L284.488 154.697C284.213 154.973 283.885 155.109 283.472 155.109V156.13ZM285.209 155.419C285.707 154.921 285.971 154.318 285.971 153.629H284.951C284.951 154.029 284.807 154.379 284.488 154.697L285.209 155.419ZM285.971 153.629V149.088H284.951V153.629H285.971ZM285.971 149.088C285.971 148.398 285.704 147.803 285.194 147.334L284.504 148.086C284.809 148.366 284.951 148.689 284.951 149.088H285.971ZM285.225 147.365C284.756 146.853 284.162 146.587 283.472 146.587V147.608C283.87 147.608 284.194 147.75 284.473 148.055L285.225 147.365ZM283.472 146.587H265.728V147.608H283.472V146.587ZM265.728 146.587C264.162 146.587 262.828 146.044 261.699 144.945L260.988 145.677C262.306 146.96 263.895 147.608 265.728 147.608V146.587ZM261.709 144.956C260.611 143.826 260.069 142.49 260.069 140.923H259.049C259.049 142.757 259.696 144.347 260.978 145.667L261.709 144.956ZM260.069 140.923V136.381H259.049V140.923H260.069ZM260.069 136.381C260.069 134.814 260.611 133.498 261.704 132.404L260.983 131.682C259.696 132.97 259.049 134.546 259.049 136.381H260.069ZM261.704 132.404C262.834 131.273 264.167 130.716 265.728 130.716V129.696C263.891 129.696 262.3 130.364 260.983 131.682L261.704 132.404ZM265.728 130.716H283.472V129.696H265.728V130.716ZM283.472 130.716C285.07 130.716 286.399 131.275 287.492 132.399L288.223 131.688C286.935 130.362 285.341 129.696 283.472 129.696V130.716ZM287.502 132.409C288.627 133.504 289.183 134.818 289.183 136.381H290.203C290.203 134.541 289.535 132.964 288.213 131.677L287.502 132.409ZM289.183 136.381V136.789H290.203V136.381H289.183ZM289.693 136.279H285.461V137.299H289.693V136.279ZM285.971 136.789V136.381H284.951V136.789H285.971ZM285.971 136.381C285.971 135.691 285.704 135.096 285.194 134.627L284.504 135.379C284.809 135.659 284.951 135.982 284.951 136.381H285.971ZM285.225 134.658C284.756 134.147 284.162 133.88 283.472 133.88V134.901C283.87 134.901 284.194 135.043 284.473 135.348L285.225 134.658ZM283.472 133.88H265.728V134.901H283.472V133.88ZM265.728 133.88C265.04 133.88 264.437 134.145 263.94 134.642L264.661 135.364C264.98 135.045 265.329 134.901 265.728 134.901V133.88ZM263.94 134.642C263.467 135.115 263.23 135.706 263.23 136.381H264.25C264.25 135.968 264.386 135.639 264.661 135.364L263.94 134.642ZM263.23 136.381V140.923H264.25V136.381H263.23ZM263.23 140.923C263.23 141.597 263.466 142.196 263.925 142.697L264.676 142.007C264.387 141.691 264.25 141.337 264.25 140.923H263.23ZM263.956 142.728C264.456 143.186 265.054 143.423 265.728 143.423V142.403C265.314 142.403 264.961 142.265 264.645 141.975L263.956 142.728ZM265.728 143.423H283.472V142.403H265.728V143.423ZM283.472 143.423C285.07 143.423 286.399 143.981 287.492 145.106L288.223 144.394C286.935 143.069 285.341 142.403 283.472 142.403V143.423ZM287.502 145.116C288.627 146.211 289.183 147.525 289.183 149.088H290.203C290.203 147.248 289.535 145.671 288.213 144.384L287.502 145.116ZM289.183 149.088V153.629H290.203V149.088H289.183ZM289.183 153.629C289.183 155.192 288.627 156.526 287.497 157.657L288.218 158.379C289.535 157.06 290.203 155.469 290.203 153.629H289.183ZM287.497 157.657C286.406 158.749 285.075 159.294 283.472 159.294V160.314C285.336 160.314 286.929 159.668 288.218 158.379L287.497 157.657ZM283.472 159.294H265.728V160.314H283.472V159.294Z" fill="#050121"/>
<path fill-rule="evenodd" clip-rule="evenodd" d="M94.4967 151.639C98.2983 151.639 101.38 148.555 101.38 144.75C101.38 140.945 98.2983 137.861 94.4967 137.861C90.695 137.861 87.6133 140.945 87.6133 144.75C87.6133 148.555 90.695 151.639 94.4967 151.639ZM94.4967 147.781C96.1691 147.781 97.5254 146.424 97.5254 144.75C97.5254 143.076 96.1691 141.719 94.4967 141.719C92.8238 141.719 91.468 143.076 91.468 144.75C91.468 146.424 92.8238 147.781 94.4967 147.781Z" fill="white"/>
<path d="M183.806 72.1521V10L144.101 42.5472L104.395 10V72.4986C103.356 73.6713 103 75.1272 103 76.7097C103 80.562 106.149 83.6963 110.001 83.6963C110.707 83.6963 111.394 83.5891 112.037 83.3937L137.803 103.291C137.812 103.247 137.827 103.205 137.837 103.162C138.386 106.469 141.261 109 144.722 109C148.08 109 150.892 106.618 151.558 103.454L176.639 83.384C177.292 83.5866 177.987 83.6963 178.706 83.6963C182.558 83.6963 185.601 80.562 185.601 76.7097C185.601 74.9675 184.897 73.3763 183.806 72.1521ZM178.193 22.2086V69.7485C174.451 70.0073 171.713 73.0262 171.713 76.7097C171.713 77.6894 171.921 78.6218 172.287 79.4694L149.95 97.3955C149.824 97.2537 149.696 97.1159 149.56 96.9847L167.765 70.368C170.608 69.4827 172.678 66.827 172.678 63.6958C172.678 59.8437 169.544 56.7097 165.691 56.7097C164.901 56.7097 164.144 56.8475 163.436 57.0901L149.251 45.9509L178.193 22.2086ZM165.691 67.0674C163.832 67.0674 162.319 65.5548 162.319 63.6958C162.319 61.8372 163.831 60.3244 165.691 60.3244C167.55 60.3244 169.063 61.8367 169.063 63.6958C169.063 65.5553 167.55 67.0674 165.691 67.0674ZM145.102 49.9595L159.217 61.0794C158.889 61.8887 158.704 62.7711 158.704 63.6963C158.704 65.9927 159.823 68.0278 161.538 69.302L145.039 93.4677L128.757 69.699C130.807 68.4799 132.187 66.2488 132.187 63.6963C132.187 62.5879 131.921 61.5422 131.459 60.6107L145.102 49.9595ZM125.2 60.3244C127.059 60.3244 128.572 61.8367 128.572 63.6958C128.572 65.5553 127.06 67.0674 125.2 67.0674C123.341 67.0674 121.828 65.5548 121.828 63.6958C121.828 61.8372 123.341 60.3244 125.2 60.3244ZM139.911 46.5199L126.707 56.8927C126.203 56.7768 125.71 56.7097 125.171 56.7097C121.319 56.7097 118.199 59.8437 118.199 63.6958C118.199 66.2856 119.625 68.5447 121.723 69.7516L140.16 96.7311C139.953 96.9102 139.759 97.1026 139.575 97.3047L116.433 79.4663C116.798 78.6197 116.887 77.6884 116.887 76.7097C116.887 72.9323 113.75 69.8531 110.008 69.7347V22.2086L139.911 46.5199ZM106.645 76.7097C106.645 74.8506 108.157 73.338 110.016 73.338C111.875 73.338 113.388 74.8501 113.388 76.7097C113.388 78.5682 111.876 80.0808 110.016 80.0808C108.157 80.0808 106.645 78.5682 106.645 76.7097ZM144.723 105.385C142.864 105.385 141.351 103.872 141.351 102.014C141.351 100.155 142.863 98.6422 144.723 98.6422C146.582 98.6422 148.094 100.154 148.094 102.014C148.094 103.872 146.582 105.385 144.723 105.385ZM178.706 80.0808C176.847 80.0808 175.334 78.5682 175.334 76.7097C175.334 74.8506 176.847 73.338 178.706 73.338C180.565 73.338 182.078 74.8501 182.078 76.7097C182.077 78.5682 180.565 80.0808 178.706 80.0808Z" fill="#E74A18"/>
</svg>
