<svg width="165" height="42" viewBox="0 0 165 42" fill="none" xmlns="http://www.w3.org/2000/svg">
<g clip-path="url(#clip0_338_10746)">
<path d="M87.788 29.3932V29.7358H85.1096L85.0409 29.6673L82.0192 25.9675C82.7746 25.7619 83.3927 25.2138 83.7361 24.5971L87.788 29.3932Z" fill="#ffffff"/>
<path d="M87.7193 16.6493V16.9919L87.6507 17.0604L83.7361 21.651C83.3927 20.9658 82.7746 20.4862 82.0192 20.2122L85.0409 16.7179L85.1096 16.6493H87.7193Z" fill="#ffffff"/>
<path d="M80.2336 20.2807C79.4781 20.5547 78.86 21.0343 78.5167 21.7195L74.5334 17.0604L74.4647 16.9919V16.6493H77.1431L77.2118 16.7179L80.2336 20.2807Z" fill="#ffffff"/>
<path d="M162.302 19.9381V19.527C162.302 19.39 162.234 19.1844 162.096 19.1159C161.959 18.9789 161.822 18.9104 161.684 18.9104H154.13C153.992 18.9104 153.786 18.9789 153.649 19.1159C153.512 19.2529 153.443 19.39 153.443 19.527V21.4454C153.443 21.5825 153.512 21.788 153.58 21.925C153.718 22.0621 153.855 22.0621 153.992 22.0621H161.547C162.371 22.0621 162.989 22.3361 163.538 22.8843C164.088 23.4324 164.363 24.1175 164.363 24.8712V26.7896C164.363 27.5433 164.088 28.2285 163.538 28.7766C162.989 29.3247 162.302 29.5988 161.478 29.5988H153.924C153.168 29.5988 152.481 29.3247 151.932 28.7766C151.383 28.2285 151.108 27.5433 151.108 26.7896V26.3785H153.306V26.7896C153.306 26.9267 153.374 27.1322 153.443 27.2692C153.58 27.4063 153.718 27.4063 153.855 27.4063H161.409C161.615 27.4063 161.753 27.3378 161.822 27.2692C161.959 27.1322 162.028 26.9952 162.028 26.7896V24.8712C162.028 24.7342 161.959 24.5971 161.822 24.4601C161.684 24.3231 161.547 24.2546 161.409 24.2546H153.855C153.1 24.2546 152.413 23.9805 151.863 23.4324C151.314 22.8843 151.039 22.1991 151.039 21.4454V19.527C151.039 18.7733 151.314 18.0882 151.863 17.5401C152.413 16.9919 153.1 16.7179 153.855 16.7179H161.409C162.234 16.7179 162.852 16.9919 163.401 17.5401C163.95 18.0882 164.225 18.7733 164.225 19.527V19.9381H162.302Z" fill="#ffffff"/>
<path d="M150.353 16.6493V18.8418H143.073C142.935 18.8418 142.729 18.9104 142.592 19.0474C142.455 19.1844 142.455 19.3215 142.455 19.4585V29.5988H140.257V19.527C140.257 18.7733 140.532 18.0882 141.081 17.5401C141.631 16.9919 142.317 16.7179 143.141 16.7179H150.353V16.6493Z" fill="#ffffff"/>
<path d="M138.54 24.3231V19.527C138.54 18.7733 138.265 18.0882 137.716 17.5401C137.167 16.9919 136.48 16.7179 135.724 16.7179H128.17C127.414 16.7179 126.728 16.9919 126.11 17.5401C125.56 18.0882 125.285 18.7733 125.285 19.527V26.8582C125.285 27.6118 125.56 28.297 126.11 28.8451C126.659 29.3932 127.346 29.6673 128.101 29.6673H138.54V27.4748H128.101C127.964 27.4748 127.758 27.4063 127.621 27.3378C127.483 27.2007 127.483 27.0637 127.483 26.8582V24.3231H138.54ZM127.483 19.527C127.483 19.3215 127.552 19.1844 127.621 19.1159C127.758 18.9789 127.895 18.9104 128.101 18.9104H135.656C135.793 18.9104 135.93 18.9789 136.068 19.1159C136.205 19.2529 136.274 19.39 136.274 19.527V22.0621H127.483V19.527Z" fill="#ffffff"/>
<path d="M118.693 15.4161V16.7179H124.118V18.9104H118.693V29.7358H116.495V15.4161C116.495 14.6624 116.77 13.9772 117.319 13.4291C117.868 12.881 118.555 12.6069 119.311 12.6069H124.118V14.7994H119.311C119.173 14.7994 118.967 14.8679 118.83 15.005C118.761 15.0735 118.693 15.2105 118.693 15.4161Z" fill="#ffffff"/>
<path d="M109.833 15.4161V16.7179H115.259V18.9104H109.833V29.7358H107.636V15.4161C107.636 14.6624 107.91 13.9772 108.46 13.4291C109.009 12.881 109.696 12.6069 110.52 12.6069H115.327V14.7994H110.52C110.383 14.7994 110.177 14.8679 110.039 15.005C109.902 15.0735 109.833 15.2105 109.833 15.4161Z" fill="#ffffff"/>
<path d="M104.889 14.4569C104.339 13.9087 103.652 13.6347 102.897 13.6347H92.5267C91.7713 13.6347 91.0845 13.9087 90.5351 14.4569C89.9857 15.005 89.711 15.6901 89.711 16.4438V26.8582C89.711 27.6118 89.9857 28.297 90.5351 28.8451C91.0845 29.3932 91.7713 29.6673 92.5267 29.6673H102.966C103.721 29.6673 104.408 29.3932 104.957 28.8451C105.507 28.297 105.781 27.6118 105.781 26.8582V16.4438C105.713 15.6901 105.438 15.005 104.889 14.4569ZM103.515 26.8582C103.515 26.9952 103.446 27.2007 103.309 27.3378C103.172 27.4748 103.034 27.5433 102.897 27.5433H92.5267C92.3894 27.5433 92.1833 27.4748 92.046 27.4063C91.9086 27.2692 91.9086 27.1322 91.9086 26.9952V16.4438C91.9086 16.3068 91.9773 16.1012 92.1146 16.0327C92.252 15.8957 92.3894 15.8272 92.5954 15.8272H103.034C103.172 15.8272 103.309 15.8957 103.446 16.0327C103.584 16.1697 103.652 16.3068 103.652 16.4438V26.8582H103.515Z" fill="#ffffff"/>
<path d="M72.7478 17.5401C72.1984 16.9919 71.5116 16.7179 70.7562 16.7179H63.2017C62.4463 16.7179 61.7595 16.9919 61.2101 17.5401C60.6607 18.0882 60.386 18.7733 60.386 19.527V26.8582C60.386 27.6118 60.6607 28.297 61.2101 28.8451C61.7595 29.3932 62.4463 29.6673 63.2017 29.6673H70.7562C71.5803 29.6673 72.2671 29.3932 72.8165 28.8451C73.3659 28.297 73.6406 27.6118 73.6406 26.8582V19.527C73.5719 18.7048 73.2972 18.0882 72.7478 17.5401ZM71.3056 26.8582C71.3056 26.9952 71.2369 27.2007 71.0996 27.3378C70.9622 27.4748 70.8249 27.4748 70.6875 27.4748H63.1331C62.9957 27.4748 62.7897 27.4063 62.721 27.3378C62.5837 27.2007 62.5837 27.0637 62.5837 26.8582V19.527C62.5837 19.3215 62.6523 19.1844 62.7897 19.1159C62.927 18.9789 63.0644 18.9104 63.2704 18.9104H70.8249C70.9622 18.9104 71.1682 18.9789 71.2369 19.1159C71.3743 19.2529 71.443 19.39 71.443 19.527V26.8582H71.3056Z" fill="#ffffff"/>
<path d="M59.4932 13.6347V15.8272H46.9254V20.5547H57.0208V22.7472H46.9254V29.6673H44.7964V13.6347H59.4932Z" fill="#ffffff"/>
<path d="M80.1649 25.8989L77.1431 29.5988L77.0744 29.6673H74.396V29.3247L74.4647 29.2562L78.448 24.3916C78.86 25.1453 79.4781 25.6249 80.1649 25.8989Z" fill="#ffffff"/>
<path d="M82.4999 23.0898C82.4999 23.8435 81.8818 24.4601 81.1264 24.4601C80.3709 24.4601 79.7528 23.8435 79.7528 23.0898C79.7528 22.3361 80.3709 21.7195 81.1264 21.7195C81.8818 21.788 82.4999 22.3361 82.4999 23.0898Z" fill="#ffffff"/>
<path d="M34.907 26.3785V0L18.0126 13.8401L1.11809 0V26.5155C0.637353 27.0636 0.5 27.6803 0.5 28.2969C0.5 29.9413 1.87353 31.2431 3.4531 31.2431C3.72781 31.2431 4.07119 31.1746 4.3459 31.106L15.3342 39.5334V39.4649C15.5402 40.8352 16.7764 41.9315 18.2873 41.9315C19.7295 41.9315 20.897 40.9038 21.1717 39.602L31.8853 31.106C32.16 31.1746 32.4347 31.2431 32.7781 31.2431C34.4263 31.2431 35.7312 29.9413 35.7312 28.2969C35.6625 27.6117 35.3878 26.9266 34.907 26.3785ZM32.5033 5.20718V25.3507C30.9238 25.4878 29.7563 26.721 29.7563 28.2969C29.7563 28.708 29.825 29.1191 30.031 29.4617L20.4849 37.1354C20.4162 37.0669 20.4162 36.9984 20.3476 36.9299L28.108 25.6248C29.3442 25.2822 30.1683 24.1175 30.1683 22.8157C30.1683 21.1713 28.8635 19.8695 27.2152 19.8695C26.8719 19.8695 26.5285 19.938 26.2538 20.0065L20.2102 15.279L32.5033 5.20718ZM27.2152 24.2545C26.3911 24.2545 25.773 23.6378 25.773 22.8157C25.773 21.9935 26.3911 21.3768 27.2152 21.3768C28.0394 21.3768 28.6575 21.9935 28.6575 22.8157C28.6575 23.5693 27.9707 24.2545 27.2152 24.2545ZM18.4246 16.9918L24.4682 21.7194C24.3308 22.062 24.2621 22.4046 24.2621 22.8157C24.2621 23.7749 24.7429 24.6656 25.4983 25.2137L18.4933 35.491L11.4883 25.3507C12.3811 24.8026 12.9305 23.9119 12.9305 22.8157C12.9305 22.3361 12.7931 21.925 12.5871 21.5139L18.4246 16.9918ZM9.97739 21.3768C10.8015 21.3768 11.4196 21.9935 11.4196 22.8157C11.4196 23.6378 10.8015 24.2545 9.97739 24.2545C9.15327 24.2545 8.53518 23.6378 8.53518 22.8157C8.53518 21.9935 9.15327 21.3768 9.97739 21.3768ZM16.227 15.4845L10.5955 19.8695C10.3894 19.801 10.1834 19.801 9.90871 19.801C8.26047 19.801 6.95561 21.1028 6.95561 22.7471C6.95561 23.8434 7.5737 24.8026 8.4665 25.3507L16.2956 36.7928C16.227 36.8613 16.1583 36.9299 16.0209 37.0669L6.20017 29.4617C6.33752 29.1191 6.4062 28.708 6.4062 28.2969C6.4062 26.721 5.10134 25.4193 3.4531 25.3507V5.20718L16.227 15.4845ZM2.07956 28.2969C2.07956 27.4747 2.69765 26.8581 3.52178 26.8581C4.3459 26.8581 4.96399 27.4747 4.96399 28.2969C4.96399 29.1191 4.3459 29.7357 3.52178 29.7357C2.69765 29.7357 2.07956 29.1191 2.07956 28.2969ZM18.2873 40.4927C17.4631 40.4927 16.8451 39.876 16.8451 39.0538C16.8451 38.2316 17.4631 37.615 18.2873 37.615C19.1114 37.615 19.7295 38.2316 19.7295 39.0538C19.7295 39.876 19.0427 40.4927 18.2873 40.4927ZM32.7094 29.7357C31.8853 29.7357 31.2672 29.1191 31.2672 28.2969C31.2672 27.4747 31.8853 26.8581 32.7094 26.8581C33.5335 26.8581 34.1516 27.4747 34.1516 28.2969C34.1516 29.1191 33.5335 29.7357 32.7094 29.7357Z" fill="#E74A18"/>
</g>
<defs>
<clipPath id="clip0_338_10746">
<rect width="164" height="42" fill="white" transform="translate(0.5)"/>
</clipPath>
</defs>
</svg>
