<svg width="92" height="8" viewBox="0 0 92 8" fill="none" xmlns="http://www.w3.org/2000/svg">
<path d="M90.8691 2.85724C90.7819 2.70864 90.6182 2.57861 90.4219 2.49502C90.2364 2.42071 90.0728 2.41142 90.051 2.41142L89.9855 2.40214L89.8328 2.39285L89.5273 2.37427L88.9273 2.32783L87.7273 2.24424C84.5201 2.01204 81.3019 1.77056 78.0837 1.62195C65.2219 0.916069 52.3164 0.776751 39.4437 1.37118C33.0073 1.68697 26.5819 2.10492 20.1891 2.80152C13.8073 3.51669 7.4146 4.33402 1.1746 5.74579C1.0546 5.77365 0.978235 5.87582 1.00005 5.98727C1.03278 6.09873 1.15278 6.16374 1.28369 6.14517C7.54551 4.97489 13.9164 4.2783 20.2982 3.7396C26.6801 3.21947 33.0837 2.83867 39.4873 2.64362C45.9019 2.45786 52.3164 2.44858 58.7201 2.5043C63.2691 2.5879 67.8182 2.69935 72.3564 2.91297C69.411 2.99656 66.4764 3.09873 63.531 3.21019C57.1055 3.47954 50.6801 3.84176 44.2655 4.29687C41.0582 4.51978 37.851 4.82628 34.6546 5.17923C31.4691 5.56003 28.2619 5.92226 25.131 6.656C25.0219 6.68387 24.9564 6.76746 24.9782 6.86034C25.0001 6.95322 25.1091 7.01823 25.2182 6.99966H25.2291C31.5455 5.95012 37.9819 5.69006 44.3855 5.32783C50.7892 4.99347 57.2146 4.80771 63.6291 4.63124C70.0437 4.43619 76.4692 4.30616 82.8946 4.21328L87.7164 4.15755L88.9164 4.14827H89.5164H89.8219H89.9746H90.0837C90.2691 4.14827 90.5746 4.0461 90.7492 3.86963C91.0982 3.48882 91.0328 3.14517 90.8691 2.85724ZM89.8764 4.0461C89.8982 4.0461 89.8873 4.05539 89.8764 4.0461V4.0461Z" fill="#E74A18"/>
</svg>
