<svg xmlns="http://www.w3.org/2000/svg" xmlns:xlink="http://www.w3.org/1999/xlink" viewBox="0 0 232.77 224.89"><defs><style>.cls-1{opacity:0.3;fill:url(#linear-gradient);}.cls-2{fill:#21242d;}.cls-3{fill:none;stroke:#05f2f6;stroke-miterlimit:10;stroke-width:5px;}.cls-4{fill:#05f2f6;}.cls-5{fill:#30b6d5;}.cls-6{fill:#a3dfe9;}.cls-7{fill:#fff;}</style><linearGradient id="linear-gradient" x1="118.17" y1="189.07" x2="118.17" y2="45.56" gradientUnits="userSpaceOnUse"><stop offset="0" stop-color="#31c9f7"/><stop offset="1" stop-color="#05f2f6"/></linearGradient></defs><g id="Layer_2" data-name="Layer 2"><g id="Layer_1-2" data-name="Layer 1"><circle class="cls-1" cx="118.17" cy="117.32" r="71.76"/><circle class="cls-2" cx="118.17" cy="117.32" r="39.82"/><circle class="cls-3" cx="118.17" cy="117.32" r="47.25"/><circle class="cls-4" cx="70.44" cy="9.19" r="9.19"/><circle class="cls-4" cx="164.95" cy="33.69" r="9.19"/><circle class="cls-4" cx="222.71" cy="115.07" r="9.19"/><circle class="cls-5" cx="24.06" cy="133.45" r="9.19"/><circle class="cls-5" cx="140.45" cy="15.31" r="3.94"/><circle class="cls-5" cx="193.83" cy="162.33" r="3.94"/><circle class="cls-5" cx="48.57" cy="192.08" r="3.94"/><circle class="cls-5" cx="31.94" cy="80.94" r="3.94"/><circle class="cls-6" cx="44.19" cy="65.19" r="3.94"/><circle class="cls-6" cx="3.94" cy="157.08" r="3.94"/><circle class="cls-6" cx="180.7" cy="220.96" r="3.94"/><circle class="cls-6" cx="228.83" cy="57.32" r="3.94"/><circle class="cls-4" cx="13.56" cy="69.57" r="4.81"/><path class="cls-7" d="M111.73,136.34h.07a1,1,0,0,0,.87-1l-2-27.45a.94.94,0,1,0-1.87.13l2,27.46A1,1,0,0,0,111.73,136.34Z"/><path class="cls-7" d="M122.3,136.34h.07a1,1,0,0,0,.94-.87l2-27.46a.94.94,0,0,0-1.88-.13l-2,27.45A.94.94,0,0,0,122.3,136.34Z"/><path class="cls-7" d="M117.05,136.34a.94.94,0,0,0,.94-.94V108a.94.94,0,0,0-1.88,0V135.4A.94.94,0,0,0,117.05,136.34Z"/><path class="cls-7" d="M134.91,102.41a2.82,2.82,0,0,0-2.82-2.82h-9.4V97.71a2.82,2.82,0,0,0-2.82-2.82h-5.64a2.82,2.82,0,0,0-2.82,2.82v1.88H102a2.81,2.81,0,0,0-.45,5.59l3.79,32.33a2.81,2.81,0,0,0,2.8,2.49H126a2.82,2.82,0,0,0,2.8-2.49l3.78-32.33A2.82,2.82,0,0,0,134.91,102.41Zm-21.62-4.7a.94.94,0,0,1,.94-.94h5.64a.94.94,0,0,1,.94.94v1.88h-7.52Zm13.59,39.58a.93.93,0,0,1-.93.83h-17.8a1,1,0,0,1-.94-.83l-3.75-32.06h27.17Zm5.21-33.94H102a.94.94,0,1,1,0-1.88h30.08a.94.94,0,0,1,0,1.88Z"/></g></g></svg>